<svg width="200" height="204" viewBox="0 0 200 204" fill="none" xmlns="http://www.w3.org/2000/svg">
<path d="M99.3442 0.0090688C100.363 -0.0881702 101.344 0.610736 102.182 1.42511C104.796 3.95738 107.5 6.42076 109.891 9.15561C113.912 13.7542 118.547 17.741 122.633 22.2586C127.491 27.627 132.926 32.4281 137.792 37.7702C141.335 41.6618 145.154 45.2657 148.798 49.0479C150.711 51.0332 152.799 52.8625 154.606 54.9349C157.242 57.9574 160.163 60.6842 162.971 63.5304C166.295 66.8993 169.774 70.1285 172.96 73.623C175.837 76.7772 178.865 79.7734 181.866 82.7979C186.762 87.7348 191.705 92.6251 196.603 97.562C197.661 98.6276 198.627 99.7844 199.604 100.925C200.141 101.551 200.143 102.207 199.545 102.932C198.826 103.81 198.022 104.618 197.246 105.446C185.822 117.63 173.738 129.163 161.986 141.02C150.255 152.857 138.426 164.596 126.64 176.38C125.157 177.863 123.575 179.261 122.218 180.853C119.021 184.605 115.354 187.889 111.929 191.412C109.447 193.964 106.898 196.452 104.395 198.982C103.983 199.398 103.637 199.876 103.264 200.327C102.539 201.211 101.761 202.023 100.752 202.611C99.5833 203.289 98.4468 203.309 97.3245 202.592C96.7431 202.222 96.1799 201.798 95.6836 201.32C94.227 199.918 92.6996 198.569 91.399 197.029C88.1435 193.178 84.2722 189.929 80.9276 186.183C78.3548 183.302 75.5531 180.663 72.8912 177.879C72.3847 177.349 71.8135 176.875 71.3354 176.32C67.4661 171.836 62.9992 167.925 59.0144 163.563C55.0742 159.25 50.6842 155.383 46.8048 151.035C42.6357 146.362 37.9115 142.243 33.7282 137.606C29.1782 132.562 24.0793 128.059 19.507 123.055C14.1953 117.243 8.40758 111.911 2.99259 106.21C1.96753 105.13 1.12275 103.86 0.320528 102.598C-0.171745 101.822 -0.0603162 100.935 0.405621 100.086C1.60693 97.8922 3.42204 96.227 5.15411 94.4929C8.52506 91.1179 12.0115 87.8503 15.2589 84.3618C21.7496 77.389 28.69 70.8659 35.2739 63.9883C37.403 61.7639 39.4835 59.4889 41.6613 57.3092C45.2956 53.6749 48.9542 50.0649 52.5662 46.4083C54.0592 44.897 55.4165 43.248 56.9116 41.7367C60.9146 37.6871 65.1121 33.8158 68.949 29.6163C74.0317 24.0494 79.6371 19.0051 84.7422 13.4767C87.2096 10.8046 89.8432 8.30679 92.3005 5.63677C93.364 4.48004 94.3162 3.22201 95.3311 2.01867C96.3096 0.853832 97.442 -0.0334732 99.3442 0.0090688ZM14.88 101.16C15.1495 101.788 15.2852 102.529 15.7106 103.022C17.2158 104.772 18.7919 106.461 20.3903 108.127C22.0717 109.875 23.8321 111.544 25.5196 113.284C29.8346 117.739 34.3785 121.967 38.5375 126.584C41.6815 130.074 45.168 133.251 48.468 136.601C50.6316 138.797 52.7101 141.074 54.8655 143.277C57.6389 146.109 60.4547 148.902 63.2524 151.71C65.6084 154.074 67.9138 156.483 70.1867 158.928C75.1155 164.232 80.4819 169.108 85.3925 174.44C88.9437 178.297 92.7766 181.897 96.498 185.596C96.9619 186.056 97.4886 186.469 98.0396 186.823C98.7811 187.301 99.5954 187.328 100.325 186.809C101.04 186.303 101.749 185.764 102.371 185.148C106.333 181.222 110.271 177.272 114.218 173.329C120.085 167.467 126 161.655 131.8 155.725C138.315 149.064 145.091 142.667 151.436 135.832C155.785 131.146 160.443 126.748 164.966 122.224C171.048 116.139 177.135 110.061 183.203 103.964C183.689 103.475 184.076 102.88 184.449 102.294C184.554 102.128 184.53 101.772 184.416 101.597C184.037 101.016 183.642 100.431 183.162 99.9343C181.523 98.2447 179.83 96.6119 178.189 94.9265C175.426 92.0863 172.721 89.1873 169.936 86.3694C165.266 81.6452 160.57 76.9453 155.844 72.2759C154.197 70.6491 152.722 68.8684 151.118 67.2093C143.549 59.3876 135.552 51.9914 128.196 43.9591C127.205 42.8773 126.14 41.8644 125.102 40.8272C120.435 36.1556 115.743 31.5064 111.104 26.8065C108.76 24.4404 106.287 22.1998 104.154 19.6108C103.187 18.4399 101.889 17.5364 100.71 16.5478C99.7535 15.7456 98.5785 15.7172 97.5676 16.4688C96.9518 16.9266 96.3501 17.4229 95.8153 17.9719C90.2686 23.6969 84.3856 29.0855 79.0537 35.0293C76.4343 37.9485 73.5151 40.5962 70.7378 43.3716C66.0662 48.0431 61.3886 52.7085 56.7414 57.4044C55.2464 58.9156 53.885 60.5606 52.3879 62.0698C47.8542 66.64 43.2799 71.1698 38.7259 75.7197C32.3527 82.0909 25.9815 88.4661 19.6123 94.8393C18.6237 95.8279 17.6048 96.7902 16.679 97.8335C15.8545 98.7654 15.0421 99.7418 14.88 101.16Z" fill="#C1665E"/>
<path d="M22.3512 101.206C22.1992 99.6465 23.1412 98.6417 24.0265 97.6916C25.7586 95.838 27.6183 94.1039 29.3828 92.2807C31.3985 90.1982 33.3331 88.0346 35.369 85.9723C39.4166 81.8701 43.6019 77.8995 47.5502 73.706C49.7401 71.3804 51.9544 69.0831 54.201 66.8162C56.9946 63.9983 59.9036 61.2858 62.5757 58.3565C64.5812 56.1584 66.6455 54.0253 68.7443 51.9184C71.8053 48.8473 74.8866 45.7984 77.9232 42.703C79.9511 40.6346 81.8796 38.4691 83.9176 36.4088C88.4858 31.79 93.0945 27.2096 97.6891 22.6151C97.8714 22.4327 98.0699 22.2686 98.2705 22.1066C98.8559 21.6346 99.2834 21.5758 99.8385 22.0701C101.234 23.314 102.624 24.57 103.949 25.8888C108.639 30.5481 113.314 35.2237 117.967 39.9195C119.902 41.8724 121.731 43.9306 123.668 45.8815C128.889 51.1486 134.265 56.2719 139.338 61.6788C142.407 64.9505 145.567 68.1229 148.717 71.3075C154.718 77.3707 160.84 83.3165 166.767 89.4527C169.006 91.7702 171.226 94.112 173.477 96.4235C174.066 97.0272 174.672 97.6147 175.255 98.2244C177.401 100.465 176.937 102.529 175.612 104.375C174.273 106.241 172.547 107.73 170.957 109.348C167.869 112.488 164.723 115.569 161.612 118.683C158.603 121.693 155.492 124.611 152.627 127.753C148.535 132.24 144.139 136.417 139.889 140.742C136.897 143.785 133.791 146.718 130.862 149.818C128.822 151.975 126.845 154.192 124.732 156.282C120.561 160.413 116.402 164.558 112.273 168.733C110.055 170.977 107.917 173.301 105.732 175.578C104.814 176.532 103.894 177.486 102.924 178.386C101.885 179.35 100.744 180.104 99.2003 179.978C97.9767 179.879 97.0469 179.222 96.2305 178.447C94.468 176.779 92.6772 175.12 91.091 173.289C87.24 168.844 82.848 164.94 78.7903 160.705C76.4059 158.215 74.062 155.685 71.6432 153.227C67.8489 149.374 63.9877 145.588 60.1913 141.737C58.4937 140.017 56.9237 138.171 55.224 136.454C51.0427 132.228 46.7095 128.146 42.6559 123.802C40.0244 120.982 37.3037 118.256 34.6053 115.505C32.3911 113.248 30.1222 111.046 27.9181 108.777C26.3866 107.199 24.8956 105.576 23.4471 103.921C22.7665 103.155 22.1931 102.272 22.3512 101.206ZM70.6101 83.2517C69.974 83.4259 69.3844 83.6913 68.7808 83.7338C67.541 83.8229 66.449 84.2565 65.3247 84.7508C62.8127 85.8508 60.9976 87.7429 59.2493 89.7424C58.0439 91.1219 56.8751 92.5339 55.6332 93.8811C55.143 94.4139 54.4441 94.7522 53.9457 95.2789C52.4466 96.8611 50.668 98.0968 48.9622 99.4237C48.5003 99.7843 48.0547 100.169 47.6333 100.576C46.7703 101.411 46.7399 101.859 47.6232 102.675C49.4261 104.336 51.2879 105.935 53.0989 107.59C55.1592 109.472 57.2215 111.354 59.2209 113.298C60.6998 114.739 62.2394 116.086 64.0201 117.137C65.0938 117.771 66.1816 118.383 67.2776 118.979C67.8813 119.307 68.5235 119.398 69.192 119.141C70.7296 118.545 72.2915 118.009 73.8007 117.35C74.528 117.032 75.2107 116.556 75.8184 116.037C78.3669 113.868 80.1253 111.044 82.0579 108.368C82.5036 107.752 82.4327 107.517 81.8249 106.976C81.6325 106.806 81.4421 106.627 81.2233 106.498C80.1861 105.876 79.1327 105.28 78.0995 104.654C76.4505 103.656 74.9331 102.513 73.9749 100.775C73.5819 100.064 73.6123 99.7296 74.1876 99.1219C75.4335 97.8051 77.0724 97.2257 78.766 96.8773C79.6654 96.6929 80.4616 96.3485 81.1828 95.8704C82.6008 94.9284 83.5287 93.484 82.6596 91.6486C82.0478 90.3562 81.1767 89.2906 80.2853 88.2291C78.7417 86.3856 76.7402 85.1316 74.5381 84.2625C73.2882 83.7662 71.9228 83.5778 70.6101 83.2517ZM126.646 118.464C128.957 118.497 131.095 117.871 133.025 116.661C134.291 115.867 135.529 114.98 136.619 113.963C138.09 112.587 139.403 111.042 140.794 109.581C141.046 109.318 141.343 109.093 141.643 108.88C142.658 108.159 143.675 107.438 144.708 106.745C146.531 105.523 148.359 104.31 150.202 103.119C150.954 102.633 151.008 102.248 150.407 101.555C149.252 100.226 147.856 99.2353 146.248 98.5506C143.701 97.4668 141.592 95.7408 139.668 93.8385C138.27 92.459 137.103 90.8262 135.953 89.2197C134.844 87.67 133.593 86.337 131.901 85.4193C130.712 84.773 129.557 84.062 128.411 83.3408C127.598 82.8303 126.867 82.8688 126.048 83.3631C124.294 84.4226 122.471 85.3707 120.735 86.4585C119.12 87.4694 117.52 88.5248 116.037 89.712C115.354 90.2569 114.829 91.1078 114.469 91.9242C113.742 93.5711 114.955 95.2343 116.075 96.0001C117.481 96.9603 119.104 97.2926 120.743 97.5316C121.349 97.6207 121.877 97.7443 122.278 98.2568C123.008 99.1867 122.947 100.487 122.051 101.48C121.14 102.493 120.103 103.325 118.875 103.976C117.66 104.62 116.397 105.242 115.474 106.348C114.811 107.14 114.394 107.958 114.428 109.032C114.463 110.132 114.973 111.036 115.581 111.826C116.515 113.039 117.556 114.194 118.683 115.233C120.917 117.283 123.571 118.42 126.646 118.464ZM82.301 130.169C82.5218 131.239 82.7771 132.303 82.9533 133.378C83.2228 135.04 83.8953 136.53 84.7259 137.971C85.6699 139.608 86.7983 141.119 88.2913 142.257C89.8249 143.428 91.166 144.784 92.424 146.208C94.1905 148.211 95.8132 150.345 97.4906 152.429C98.2502 153.371 98.8924 153.448 99.804 152.63C100.294 152.19 100.73 151.688 101.196 151.22C104.528 147.873 108.021 144.67 110.841 140.854C111.795 139.561 112.65 138.184 113.442 136.784C114.179 135.481 114.706 134.057 115.455 132.76C115.942 131.922 115.94 131.197 115.541 130.372C115.158 129.582 114.803 128.776 114.473 127.961C113.81 126.337 113.259 124.661 112.5 123.085C111.868 121.774 111.049 120.545 110.235 119.331C109.287 117.919 107.192 117.453 105.622 118.136C104.198 118.756 103.29 119.854 102.482 121.112C101.771 122.218 101.028 123.316 100.185 124.323C99.5062 125.135 98.4366 125.109 97.6364 124.418C97.4156 124.228 97.209 124.009 97.0307 123.778C96.1353 122.617 95.2662 121.432 94.3566 120.281C93.3133 118.963 92.0958 118.009 90.2462 118.193C89.0206 118.316 88.1374 119.025 87.2946 119.761C85.5565 121.28 84.2033 123.134 83.4942 125.33C82.9878 126.884 82.2889 128.429 82.301 130.169ZM97.8977 76.9534C98.1591 77.1924 98.3049 77.3626 98.4832 77.4801C100.217 78.6267 101.639 80.0367 102.75 81.8316C103.351 82.8019 104.267 83.6264 105.172 84.3517C106.532 85.4375 108.515 85.2268 109.82 84.1086C111.418 82.7351 112.538 81.0395 113.357 79.1312C113.746 78.2276 114.048 77.2856 114.368 76.3538C114.546 75.8372 114.639 75.2882 114.84 74.7817C115.31 73.6007 115.356 72.4277 114.915 71.2305C114.495 70.096 114.129 68.9393 113.669 67.821C113.379 67.1181 113.014 66.4273 112.583 65.8013C111.876 64.7763 111.108 63.7937 110.33 62.8213C108.477 60.5018 106.605 58.1944 104.735 55.889C103.86 54.8093 102.938 53.7639 102.091 52.6619C101.036 51.2843 99.881 50.8387 98.3292 52.0217C98.0679 52.2203 97.8086 52.431 97.5878 52.672C96.4473 53.9138 95.3229 55.1699 94.1885 56.4157C93.8421 56.7966 93.4693 57.1511 93.129 57.536C91.6745 59.1789 90.2969 60.8968 88.7593 62.4567C87.246 63.9923 85.8887 65.6109 85.0622 67.6043C84.6003 68.7144 84.1546 69.8691 83.9703 71.0461C83.7819 72.2434 83.4983 73.4893 83.9136 74.7169C83.9257 74.7493 83.9196 74.7898 83.9176 74.8263C83.8872 76.4287 84.576 77.8205 85.2709 79.1899C86.1845 80.9929 87.6593 82.34 89.1543 83.6447C89.6162 84.0478 90.2037 84.3233 90.7649 84.5887C91.3442 84.8642 91.9317 84.7771 92.3997 84.3172C92.8433 83.8817 93.3295 83.4542 93.6476 82.9316C94.1986 82.026 94.6261 81.0455 95.1163 80.1015C95.7605 78.8556 96.6417 77.8063 97.8977 76.9534ZM98.9978 110.331C99.9904 110.44 101.449 109.842 102.786 108.846C104.832 107.32 106.337 105.467 106.54 102.795C106.562 102.507 106.665 102.219 106.771 101.948C106.955 101.48 106.986 101.038 106.757 100.568C106.631 100.311 106.59 100.007 106.542 99.7195C106.285 98.1981 105.606 96.8489 104.605 95.7185C101.595 92.307 97.1847 91.5757 93.3883 94.4584C91.7332 95.7165 90.6514 97.3959 90.0153 99.4663C89.3367 101.68 89.6243 103.731 90.6271 105.621C92.2214 108.615 94.8327 110.205 98.9978 110.331Z" fill="#C1665E"/>
</svg>
