<svg width="205" height="49" viewBox="0 0 205 49" fill="none" xmlns="http://www.w3.org/2000/svg">
<path d="M159.551 29.9707C160.254 27.8613 161.094 25.9473 162.07 24.2285C163.047 22.4902 164.102 20.9473 165.234 19.5996C166.387 18.252 167.588 17.0898 168.838 16.1133C170.107 15.1367 171.367 14.3359 172.617 13.7109C173.887 13.0664 175.127 12.5879 176.338 12.2754C177.568 11.9629 178.721 11.8066 179.795 11.8066C180.908 11.8066 181.836 11.9824 182.578 12.334C183.32 12.666 183.916 13.1445 184.365 13.7695C184.834 14.375 185.166 15.1172 185.361 15.9961C185.557 16.8555 185.654 17.8125 185.654 18.8672L188.027 12.3633H192.363L184.893 32.8711C184.619 33.6328 184.346 34.4141 184.072 35.2148C183.799 35.9961 183.555 36.7773 183.34 37.5586C183.145 38.3203 182.979 39.0625 182.842 39.7852C182.725 40.4883 182.666 41.1426 182.666 41.748C182.666 43.0957 183.018 44.1699 183.721 44.9707C184.443 45.7715 185.557 46.1719 187.061 46.1719C188.369 46.1719 189.639 45.8984 190.869 45.3516C192.1 44.7852 193.311 43.9355 194.502 42.8027C195.713 41.6504 196.924 40.2148 198.135 38.4961C199.346 36.7578 200.596 34.7266 201.885 32.4023L203.379 29.707L204.17 30.2637L202.646 32.959C201.221 35.498 199.854 37.6953 198.545 39.5508C197.256 41.3867 195.967 42.9102 194.678 44.1211C193.389 45.3125 192.07 46.2012 190.723 46.7871C189.375 47.3535 187.939 47.6367 186.416 47.6367C185.225 47.6367 184.17 47.4512 183.252 47.0801C182.354 46.7285 181.592 46.2207 180.967 45.5566C180.361 44.8926 179.902 44.0918 179.59 43.1543C179.277 42.2168 179.121 41.1719 179.121 40.0195C179.121 39.2578 179.189 38.4375 179.326 37.5586C179.463 36.6602 179.668 35.7324 179.941 34.7754C177.383 39.0723 174.854 42.2949 172.354 44.4434C169.854 46.5723 167.314 47.6367 164.736 47.6367C163.525 47.6367 162.49 47.4219 161.631 46.9922C160.791 46.543 160.098 45.9277 159.551 45.1465C159.004 44.3457 158.604 43.418 158.35 42.3633C158.096 41.2891 157.969 40.1172 157.969 38.8477C157.969 37.4805 158.105 36.0449 158.379 34.541C158.652 33.0176 159.043 31.4941 159.551 29.9707ZM165.791 46.1719C166.846 46.1719 167.92 45.8984 169.014 45.3516C170.107 44.7852 171.191 44.0234 172.266 43.0664C173.359 42.0898 174.414 40.957 175.43 39.668C176.445 38.3594 177.402 36.9727 178.301 35.5078C179.219 34.0234 180.059 32.5 180.82 30.9375C181.582 29.375 182.236 27.8418 182.783 26.3379C183.35 24.8145 183.779 23.3691 184.072 22.002C184.385 20.6152 184.541 19.375 184.541 18.2812C184.541 17.2852 184.414 16.4551 184.16 15.791C183.926 15.1074 183.604 14.5605 183.193 14.1504C182.803 13.7207 182.344 13.418 181.816 13.2422C181.309 13.0664 180.781 12.9785 180.234 12.9785C179.141 12.9785 177.92 13.3203 176.572 14.0039C175.244 14.668 173.887 15.6934 172.5 17.0801C171.113 18.4473 169.746 20.1855 168.398 22.2949C167.07 24.3848 165.85 26.8457 164.736 29.6777C163.818 32.041 163.125 34.2285 162.656 36.2402C162.207 38.252 161.982 39.9316 161.982 41.2793C161.982 42.8027 162.285 44.0039 162.891 44.8828C163.516 45.7422 164.482 46.1719 165.791 46.1719Z" fill="#403737"/>
<path d="M134.326 12.3633H142.881L145.664 4.6875H150L147.217 12.3633H156.006V13.5352H146.777L139.746 32.8711C139.473 33.6328 139.199 34.4141 138.926 35.2148C138.672 36.0156 138.438 36.8066 138.223 37.5879C138.027 38.3496 137.861 39.0918 137.725 39.8145C137.607 40.5176 137.549 41.1621 137.549 41.748C137.549 43.0957 137.91 44.1699 138.633 44.9707C139.375 45.7715 140.488 46.1719 141.973 46.1719C143.418 46.1719 144.824 45.8984 146.191 45.3516C147.559 44.8047 148.906 43.9648 150.234 42.832C151.562 41.6992 152.881 40.2734 154.189 38.5547C155.498 36.8164 156.816 34.7656 158.145 32.4023L159.668 29.707L160.459 30.2637L158.936 32.959C157.393 35.6934 155.898 37.998 154.453 39.873C153.008 41.7285 151.572 43.2324 150.146 44.3848C148.74 45.5371 147.305 46.3672 145.84 46.875C144.395 47.3828 142.891 47.6367 141.328 47.6367C140.137 47.6367 139.082 47.4512 138.164 47.0801C137.246 46.7285 136.484 46.2207 135.879 45.5566C135.254 44.8926 134.785 44.0918 134.473 43.1543C134.141 42.2168 133.975 41.1719 133.975 40.0195C133.975 39.0039 134.092 37.8906 134.326 36.6797C134.561 35.4688 134.922 34.1992 135.41 32.8711L142.441 13.5352H134.326V12.3633Z" fill="#403737"/>
<path d="M92.8125 29.9707C93.5156 27.8613 94.3555 25.9473 95.332 24.2285C96.3086 22.4902 97.3633 20.9473 98.4961 19.5996C99.6484 18.252 100.85 17.0898 102.1 16.1133C103.369 15.1367 104.629 14.3359 105.879 13.7109C107.148 13.0664 108.389 12.5879 109.6 12.2754C110.83 11.9629 111.982 11.8066 113.057 11.8066C114.17 11.8066 115.098 11.9824 115.84 12.334C116.582 12.666 117.178 13.1445 117.627 13.7695C118.096 14.375 118.428 15.1172 118.623 15.9961C118.818 16.8555 118.916 17.8125 118.916 18.8672L121.289 12.3633H125.625L118.154 32.8711C117.881 33.6328 117.607 34.4141 117.334 35.2148C117.061 35.9961 116.816 36.7773 116.602 37.5586C116.406 38.3203 116.24 39.0625 116.104 39.7852C115.986 40.4883 115.928 41.1426 115.928 41.748C115.928 43.0957 116.279 44.1699 116.982 44.9707C117.705 45.7715 118.818 46.1719 120.322 46.1719C121.631 46.1719 122.9 45.8984 124.131 45.3516C125.361 44.7852 126.572 43.9355 127.764 42.8027C128.975 41.6504 130.186 40.2148 131.396 38.4961C132.607 36.7578 133.857 34.7266 135.146 32.4023L136.641 29.707L137.432 30.2637L135.908 32.959C134.482 35.498 133.115 37.6953 131.807 39.5508C130.518 41.3867 129.229 42.9102 127.939 44.1211C126.65 45.3125 125.332 46.2012 123.984 46.7871C122.637 47.3535 121.201 47.6367 119.678 47.6367C118.486 47.6367 117.432 47.4512 116.514 47.0801C115.615 46.7285 114.854 46.2207 114.229 45.5566C113.623 44.8926 113.164 44.0918 112.852 43.1543C112.539 42.2168 112.383 41.1719 112.383 40.0195C112.383 39.2578 112.451 38.4375 112.588 37.5586C112.725 36.6602 112.93 35.7324 113.203 34.7754C110.645 39.0723 108.115 42.2949 105.615 44.4434C103.115 46.5723 100.576 47.6367 97.998 47.6367C96.7871 47.6367 95.752 47.4219 94.8926 46.9922C94.0527 46.543 93.3594 45.9277 92.8125 45.1465C92.2656 44.3457 91.8652 43.418 91.6113 42.3633C91.3574 41.2891 91.2305 40.1172 91.2305 38.8477C91.2305 37.4805 91.3672 36.0449 91.6406 34.541C91.9141 33.0176 92.3047 31.4941 92.8125 29.9707ZM99.0527 46.1719C100.107 46.1719 101.182 45.8984 102.275 45.3516C103.369 44.7852 104.453 44.0234 105.527 43.0664C106.621 42.0898 107.676 40.957 108.691 39.668C109.707 38.3594 110.664 36.9727 111.562 35.5078C112.48 34.0234 113.32 32.5 114.082 30.9375C114.844 29.375 115.498 27.8418 116.045 26.3379C116.611 24.8145 117.041 23.3691 117.334 22.002C117.646 20.6152 117.803 19.375 117.803 18.2812C117.803 17.2852 117.676 16.4551 117.422 15.791C117.188 15.1074 116.865 14.5605 116.455 14.1504C116.064 13.7207 115.605 13.418 115.078 13.2422C114.57 13.0664 114.043 12.9785 113.496 12.9785C112.402 12.9785 111.182 13.3203 109.834 14.0039C108.506 14.668 107.148 15.6934 105.762 17.0801C104.375 18.4473 103.008 20.1855 101.66 22.2949C100.332 24.3848 99.1113 26.8457 97.998 29.6777C97.0801 32.041 96.3867 34.2285 95.918 36.2402C95.4688 38.252 95.2441 39.9316 95.2441 41.2793C95.2441 42.8027 95.5469 44.0039 96.1523 44.8828C96.7773 45.7422 97.7441 46.1719 99.0527 46.1719Z" fill="#403737"/>
<path d="M87.5098 14.4434C87.5098 14.1309 87.3047 13.8184 86.8945 13.5059C86.5039 13.1738 85.9277 13.0078 85.166 13.0078C84.3848 13.0078 83.5352 13.252 82.6172 13.7402C81.6992 14.209 80.6543 15.0488 79.4824 16.2598C78.3105 17.4707 76.9922 19.1211 75.5273 21.2109C74.082 23.3008 72.4414 25.9668 70.6055 29.209L69.1406 31.7871L63.6035 47.0801H59.2383L71.8945 12.3633H76.2305L71.1035 26.4258C72.7051 23.6719 74.1699 21.3672 75.498 19.5117C76.8262 17.6367 78.0566 16.1328 79.1895 15C80.3223 13.8477 81.3867 13.0273 82.3828 12.5391C83.3789 12.0508 84.3555 11.8066 85.3125 11.8066C86.6016 11.8066 87.6074 12.1875 88.3301 12.9492C89.0723 13.7109 89.4434 14.707 89.4434 15.9375C89.4434 16.4453 89.375 16.9336 89.2383 17.4023C89.1211 17.8516 88.9355 18.2422 88.6816 18.5742C88.4473 18.9062 88.1543 19.1699 87.8027 19.3652C87.4512 19.5605 87.0605 19.6582 86.6309 19.6582C86.3184 19.6582 86.0059 19.6094 85.6934 19.5117C85.4004 19.4141 85.1367 19.2676 84.9023 19.0723C84.668 18.8574 84.4727 18.6035 84.3164 18.3105C84.1797 18.0176 84.1113 17.6758 84.1113 17.2852C84.1113 16.9727 84.1602 16.6602 84.2578 16.3477C84.375 16.0156 84.5312 15.7324 84.7266 15.498C84.9219 15.2441 85.1562 15.0391 85.4297 14.8828C85.7031 14.7266 86.0059 14.6484 86.3379 14.6484C86.5527 14.6484 86.7578 14.668 86.9531 14.707C86.9922 14.7461 87.041 14.7852 87.0996 14.8242C87.1777 14.8438 87.2363 14.8535 87.2754 14.8535C87.4316 14.8535 87.5098 14.7168 87.5098 14.4434Z" fill="#403737"/>
<path d="M40.2832 12.3633H48.8379L51.6211 4.6875H55.957L53.1738 12.3633H61.9629V13.5352H52.7344L45.7031 32.8711C45.4297 33.6328 45.1562 34.4141 44.8828 35.2148C44.6289 36.0156 44.3945 36.8066 44.1797 37.5879C43.9844 38.3496 43.8184 39.0918 43.6816 39.8145C43.5645 40.5176 43.5059 41.1621 43.5059 41.748C43.5059 43.0957 43.8672 44.1699 44.5898 44.9707C45.332 45.7715 46.4453 46.1719 47.9297 46.1719C49.375 46.1719 50.7812 45.8984 52.1484 45.3516C53.5156 44.8047 54.8633 43.9648 56.1914 42.832C57.5195 41.6992 58.8379 40.2734 60.1465 38.5547C61.4551 36.8164 62.7734 34.7656 64.1016 32.4023L65.625 29.707L66.416 30.2637L64.8926 32.959C63.3496 35.6934 61.8555 37.998 60.4102 39.873C58.9648 41.7285 57.5293 43.2324 56.1035 44.3848C54.6973 45.5371 53.2617 46.3672 51.7969 46.875C50.3516 47.3828 48.8477 47.6367 47.2852 47.6367C46.0938 47.6367 45.0391 47.4512 44.1211 47.0801C43.2031 46.7285 42.4414 46.2207 41.8359 45.5566C41.2109 44.8926 40.7422 44.0918 40.4297 43.1543C40.0977 42.2168 39.9316 41.1719 39.9316 40.0195C39.9316 39.0039 40.0488 37.8906 40.2832 36.6797C40.5176 35.4688 40.8789 34.1992 41.3672 32.8711L48.3984 13.5352H40.2832V12.3633Z" fill="#403737"/>
<path d="M36.416 13.9746C37.1582 12.8613 37.7051 11.8164 38.0566 10.8398C38.4082 9.86328 38.584 8.86719 38.584 7.85156C38.584 6.79688 38.4082 5.84961 38.0566 5.00977C37.7246 4.16992 37.2363 3.44727 36.5918 2.8418C35.9473 2.23633 35.1562 1.77734 34.2188 1.46484C33.3008 1.13281 32.2656 0.966797 31.1133 0.966797C29.7461 0.966797 28.4961 1.19141 27.3633 1.64062C26.25 2.08984 25.293 2.72461 24.4922 3.54492C23.7109 4.36523 23.1055 5.35156 22.6758 6.50391C22.2461 7.65625 22.0312 8.93555 22.0312 10.3418C22.0312 11.748 22.2266 13.125 22.6172 14.4727C23.0078 15.8008 23.4961 17.1289 24.082 18.457C24.668 19.7656 25.3027 21.0645 25.9863 22.3535C26.6895 23.6426 27.334 24.9316 27.9199 26.2207C28.5059 27.5098 28.9941 28.8086 29.3848 30.1172C29.7754 31.4258 29.9707 32.7539 29.9707 34.1016C29.9707 35.4688 29.7559 36.7773 29.3262 38.0273C28.8965 39.2578 28.291 40.3906 27.5098 41.4258C26.748 42.4609 25.8398 43.3984 24.7852 44.2383C23.7305 45.0781 22.5781 45.791 21.3281 46.377C20.0977 46.9629 18.7891 47.4121 17.4023 47.7246C16.0156 48.0371 14.6094 48.1934 13.1836 48.1934C11.0156 48.1934 9.11133 47.8516 7.4707 47.168C5.83008 46.4844 4.45312 45.5762 3.33984 44.4434C2.22656 43.3105 1.38672 42.0117 0.820312 40.5469C0.273438 39.0625 0 37.5293 0 35.9473C0 34.9512 0.107422 33.9941 0.322266 33.0762C0.537109 32.1582 0.830078 31.3477 1.20117 30.6445C1.5918 29.9414 2.04102 29.3848 2.54883 28.9746C3.07617 28.5645 3.64258 28.3594 4.24805 28.3594C4.77539 28.3594 5.18555 28.5059 5.47852 28.7988C5.79102 29.0918 5.94727 29.4922 5.94727 30C5.94727 30.4102 5.83984 30.752 5.625 31.0254C5.42969 31.2793 5.18555 31.4941 4.89258 31.6699C4.59961 31.8457 4.28711 31.9922 3.95508 32.1094C3.62305 32.2266 3.33008 32.3438 3.07617 32.4609C2.56836 32.6953 2.13867 33.0957 1.78711 33.6621C1.45508 34.2285 1.28906 35.1074 1.28906 36.2988C1.28906 37.5098 1.51367 38.7402 1.96289 39.9902C2.41211 41.2402 3.0957 42.373 4.01367 43.3887C4.95117 44.4043 6.13281 45.2344 7.55859 45.8789C8.98438 46.5039 10.6738 46.8164 12.627 46.8164C14.3262 46.8164 15.9277 46.5625 17.4316 46.0547C18.9551 45.5273 20.2832 44.7656 21.416 43.7695C22.5684 42.7539 23.4766 41.4941 24.1406 39.9902C24.8047 38.4668 25.1367 36.709 25.1367 34.7168C25.1367 33.2129 24.9512 31.8262 24.5801 30.5566C24.2285 29.2871 23.7793 28.0762 23.2324 26.9238C22.7051 25.7715 22.1191 24.6582 21.4746 23.584C20.8496 22.4902 20.2637 21.377 19.7168 20.2441C19.1895 19.1113 18.7402 17.9395 18.3691 16.7285C18.0176 15.498 17.8418 14.1602 17.8418 12.7148C17.8418 10.8789 18.1543 9.18945 18.7793 7.64648C19.4238 6.08398 20.332 4.73633 21.5039 3.60352C22.6758 2.4707 24.082 1.5918 25.7227 0.966797C27.3828 0.322266 29.2285 0 31.2598 0C32.7246 0 34.043 0.175781 35.2148 0.527344C36.4062 0.859375 37.4121 1.34766 38.2324 1.99219C39.0723 2.63672 39.707 3.41797 40.1367 4.33594C40.5859 5.25391 40.8105 6.28906 40.8105 7.44141C40.8105 8.71094 40.5371 9.91211 39.9902 11.0449C39.4434 12.1582 38.584 13.291 37.4121 14.4434L36.416 13.9746Z" fill="#403737"/>
</svg>
